<svg width="1280" height="720" xmlns="http://www.w3.org/2000/svg" xmlns:xlink="http://www.w3.org/1999/xlink" overflow="hidden"><defs><clipPath id="clip0"><rect x="0" y="0" width="1280" height="720"/></clipPath></defs><g clip-path="url(#clip0)"><rect x="0" y="0" width="1280" height="720" fill="#FFFFFF"/><path d="M128.5 360.5C128.5 315.213 165.437 278.5 211 278.5 256.564 278.5 293.5 315.213 293.5 360.5 293.5 405.787 256.564 442.5 211 442.5 165.437 442.5 128.5 405.787 128.5 360.5Z" stroke="#FFFFFF" stroke-width="1.33333" stroke-miterlimit="8" fill="#ED7D31" fill-rule="evenodd"/><text fill="#FFFFFF" font-family="Calibri,Calibri_MSFontService,sans-serif" font-weight="400" font-size="23" transform="translate(163.731 324)">Diferencia <tspan font-size="23" x="35.0133" y="25">en </tspan><tspan font-size="23" x="2.44667" y="50">Amperios</tspan><tspan font-weight="700" font-size="23" x="0.706665" y="84">Promedio</tspan></text><path d="M164.484 411.357 187.484 411.357 210.484 411.357 233.484 411.357 256.484 411.357 256.484 413.357 233.484 413.357 210.484 413.357 187.484 413.357 164.484 413.357Z" fill="#FFFFFF" fill-rule="evenodd"/><path d="M320.876 342.915 336.758 327.198 353.5 344.117 370.242 327.198 386.124 342.915 369.218 360 386.124 377.085 370.242 392.802 353.5 375.883 336.758 392.802 320.876 377.085 337.782 360Z" fill="#ED7D31" fill-rule="evenodd"/><path d="M415.5 360.5C415.5 315.213 452.213 278.5 497.5 278.5 542.787 278.5 579.5 315.213 579.5 360.5 579.5 405.787 542.787 442.5 497.5 442.5 452.213 442.5 415.5 405.787 415.5 360.5Z" stroke="#FFFFFF" stroke-width="1.33333" stroke-miterlimit="8" fill="#A5A5A5" fill-rule="evenodd"/><text fill="#FFFFFF" font-family="Calibri,Calibri_MSFontService,sans-serif" font-weight="400" font-size="23" transform="translate(454.766 349)">Costo <tspan font-size="23" x="57.1067" y="0">Kw</tspan><tspan font-size="23" x="-2.80667" y="34">Promedio</tspan></text><path d="M451.926 386.257 474.426 386.257 496.926 386.257 519.426 386.257 541.926 386.257 541.926 388.257 519.426 388.257 496.926 388.257 474.426 388.257 451.926 388.257Z" fill="#FFFFFF" fill-rule="evenodd"/><path d="M607.074 343.04 623.04 327.074 640 344.034 656.96 327.074 672.926 343.04 655.966 360 672.926 376.96 656.96 392.926 640 375.966 623.04 392.926 607.074 376.96 624.034 360Z" fill="#A5A5A5" fill-rule="evenodd"/><path d="M701.5 360.5C701.5 315.213 738.213 278.5 783.5 278.5 828.787 278.5 865.5 315.213 865.5 360.5 865.5 405.787 828.787 442.5 783.5 442.5 738.213 442.5 701.5 405.787 701.5 360.5Z" stroke="#FFFFFF" stroke-width="1.33333" stroke-miterlimit="8" fill="#FFC000" fill-rule="evenodd"/><text fill="#FFFFFF" font-family="Calibri,Calibri_MSFontService,sans-serif" font-weight="400" font-size="23" transform="translate(741.824 337)">Duración <tspan font-size="23" x="20.38" y="25">(hrs</tspan><tspan font-size="23" x="55.54" y="25">)</tspan><tspan font-weight="700" font-size="23" x="-4.50665" y="59">Promedio</tspan></text><path d="M737.364 398.807 760.364 398.807 783.364 398.807 806.364 398.807 829.364 398.807 829.364 400.807 806.364 400.807 783.364 400.807 760.364 400.807 737.364 400.807Z" fill="#FFFFFF" fill-rule="evenodd"/><path d="M891.592 331.776 961.408 331.776 961.408 354.355 891.592 354.355ZM891.592 365.645 961.408 365.645 961.408 388.224 891.592 388.224Z" fill="#FFC000" fill-rule="evenodd"/><path d="M987.5 360.5C987.5 315.213 1024.44 278.5 1070 278.5 1115.56 278.5 1152.5 315.213 1152.5 360.5 1152.5 405.787 1115.56 442.5 1070 442.5 1024.44 442.5 987.5 405.787 987.5 360.5Z" stroke="#FFFFFF" stroke-width="1.33333" stroke-miterlimit="8" fill="#5B9BD5" fill-rule="evenodd"/><text fill="#FFFFFF" font-family="Calibri,Calibri_MSFontService,sans-serif" font-weight="400" font-size="23" transform="translate(1043.67 342)">Costo <tspan font-size="23" x="-15.3467" y="25">adicional </tspan><tspan font-weight="700" font-size="23" x="-19.9133" y="50">Promedio</tspan></text><path d="M1023.81 394.65 1046.81 394.65 1069.81 394.65 1092.81 394.65 1115.81 394.65 1115.81 396.65 1092.81 396.65 1069.81 396.65 1046.81 396.65 1023.81 396.65Z" fill="#FFFFFF" fill-rule="evenodd"/></g></svg>