<?xml version="1.0" encoding="UTF-8" standalone="no"?>
<svg
   xmlns:dc="http://purl.org/dc/elements/1.1/"
   xmlns:cc="http://creativecommons.org/ns#"
   xmlns:rdf="http://www.w3.org/1999/02/22-rdf-syntax-ns#"
   xmlns:svg="http://www.w3.org/2000/svg"
   xmlns="http://www.w3.org/2000/svg"
   xmlns:sodipodi="http://sodipodi.sourceforge.net/DTD/sodipodi-0.dtd"
   xmlns:inkscape="http://www.inkscape.org/namespaces/inkscape"
   inkscape:version="1.0 (4035a4fb49, 2020-05-01)"
   sodipodi:docname="tigo_1.svg"
   version="1.1"
   viewBox="0 0 1080 1080"
   data-name="Soy Tigo"
   id="Soy_Tigo">
  <metadata
     id="metadata41">
    <rdf:RDF>
      <cc:Work
         rdf:about="">
        <dc:format>image/svg+xml</dc:format>
        <dc:type
           rdf:resource="http://purl.org/dc/dcmitype/StillImage" />
        <dc:title>Soy Tigo y Brushes</dc:title>
      </cc:Work>
    </rdf:RDF>
  </metadata>
  <sodipodi:namedview
     inkscape:current-layer="Soy_Tigo"
     inkscape:window-maximized="1"
     inkscape:window-y="-8"
     inkscape:window-x="1912"
     inkscape:cy="540"
     inkscape:cx="333.75"
     inkscape:zoom="0.93333333"
     showgrid="false"
     id="namedview39"
     inkscape:window-height="1377"
     inkscape:window-width="3440"
     inkscape:pageshadow="2"
     inkscape:pageopacity="0"
     guidetolerance="10"
     gridtolerance="10"
     objecttolerance="10"
     borderopacity="1"
     bordercolor="#666666"
     pagecolor="#ffffff" />
  <defs
     id="defs4">
    <style
       id="style2">.cls-1{fill:#21386c;}.cls-2{fill:#fff;}</style>
  </defs>
  <title
     id="title6">Soy Tigo y Brushes</title>
  <path
     id="path8"
     d="m 1048.9372,502.21429 a 1.28,1.28 0 0 0 -0.73,-0.75 0.23,0.23 0 0 0 -0.22,-0.13 h -0.05 a 4.11,4.11 0 0 0 -1.06,-0.18 l 0.06,-0.08 a 1.93,1.93 0 0 0 -0.4,-2.65 c -2.85,-2 -7.61,-1.49 -11.7301,-0.89 a 1.25,1.25 0 0 0 -1,-1.83 c -3.83,-0.1 -7.68,0 -11.53,0.22 a 0.46,0.46 0 0 0 -0.46,-0.59 143.82,143.82 0 0 0 -18,2 l -2.44,0.18 a 1.81,1.81 0 0 0 -1.76996,-1.48 h -5.55 c 2.91,-0.22 5.82,-0.45 8.71996,-0.73 a 1.57,1.57 0 0 0 1.18,-0.68 c 1.9,-0.3 3.8,-0.51 5.68,-0.88 a 0.52,0.52 0 0 0 0,-1 21.19,21.19 0 0 0 -5.39,0.26 1.72,1.72 0 0 0 -0.93,-1.2 v 0 a 0.56,0.56 0 0 0 -0.31,-1.07 l -0.49,0.05 a 2,2 0 0 0 -2.28,-2.6 l -3.74996,0.44 a 0.38,0.38 0 0 0 -0.35,-0.28 c -1.36,0 -2.71,0.05 -4.06,0.09 a 34.64,34.64 0 0 0 6.79,-1.57 c 6.43996,-0.42 12.88996,-0.79 19.36996,-1 a 1.16,1.16 0 0 0 0.92,-0.49 1.27,1.27 0 0 1 0.22,0.14 0.77,0.77 0 0 0 1.06,-0.17 l 0.12,-0.13 a 0.61,0.61 0 0 0 0.15,-0.34 11.69,11.69 0 0 0 1.92,-0.64 0.55,0.55 0 0 0 -0.3,-1 l -0.67,0.07 a 0.26,0.26 0 0 0 -0.14,0.06 v 0 l -2.51,0.1 a 1.32,1.32 0 0 0 -0.8,-0.41 c -5.61,-0.51 -11.22,-0.69 -16.84,-0.67 6,-0.68 12,-1.56 18,-2.71 a 2,2 0 0 0 1.38,-0.92 65.81,65.81 0 0 0 9.62,-2.13 c 0.85,-0.27 0.46,-1.42 -0.23,-1.56 a 76.33,76.33 0 0 0 -15.21,-1.35 1.52,1.52 0 0 0 -1.46,-2.1 q -13.85996,0.35 -27.72996,1 c -4.62,0.23 -9.25,0.41 -13.86,0.73 l -13.83,1.08 -55.34,4.67 c -2.18,0.09 -4.37,0.23 -6.55,0.36 a 2.11,2.11 0 0 0 -1.78,-1.74 l -1.23,-0.12 a 2.24,2.24 0 0 0 -0.35,-0.57 l 1.07,-0.33 c 4.42,-0.87 9.17,-1 13.47,-1.58 1.12,-0.15 1.43,-1.89 0.2,-2.18 l -0.75,-0.13 a 2.62,2.62 0 0 0 0.31,-2.06 h 0.1 c 18.63,-1.78 37.26,-3.59 55.92,-4.84 10.39,-0.79 20.81,-0.86 31.22,-1 8.11996,-0.11 16.55996,0.41 24.59996,-0.83 a 0.82,0.82 0 0 0 0,-1.62 c -8.67,-2.06 -18,-2.56 -27.36996,-2.47 -9.37,0.09 -18.81,0.67 -27.67,1.24 -17.95,1 -35.89,2.47 -53.82,4 a 2.44,2.44 0 0 0 -0.28,-0.14 18.36,18.36 0 0 0 -7,-0.84 1,1 0 0 0 0,-0.35 c -1.27,-4.84 -5,-6 -9.1,-6.41 l 1.8,-0.2 a 1.37,1.37 0 0 0 1.22,-1.25 l 3.57,-0.37 c 1.14,-0.13 1.5,-2 0.2,-2.25 -2.44,-0.43 -4.87,-0.75 -7.31,-1 a 1.22,1.22 0 0 0 -1,-1.12 l -0.87,-0.16 0.13,-1.25 a 2.41,2.41 0 0 0 1.13,-2 c 0.05,-1 0.22,-2.49 0.22,-3.95 a 6.23,6.23 0 0 0 3.13,-0.51 12.18,12.18 0 0 0 2.37,-1.71 h 0.8 a 1.54,1.54 0 0 0 1.53,-1.75 h 0.06 a 1.17,1.17 0 0 0 0,-2 5.78,5.78 0 0 0 -3,-0.8 22.9,22.9 0 0 0 -4.2,-0.89 c 0,-2.35 -2.23,-5.28 -4.27,-6.76 a 20.85,20.85 0 0 0 -10.41,-7.3 l 0.22,-0.13 a 123.44,123.44 0 0 0 18.19,-3.34 c 2.25,-0.56 2.28,-3.13 1,-4.55 a 29,29 0 0 0 12.75,-1.84 0.74,0.74 0 0 0 -0.41,-1.41 11.25,11.25 0 0 0 -1.63,0.46 c 0,0 0,0 0,0 -0.74,0.22 -1.44,0.4 -2.15,0.55 a 2.9,2.9 0 0 0 0.46,-2.18 2,2 0 0 0 -2.28,-1.73 c -2.19,0.25 -4.37,0.55 -6.55,0.88 a 0.66,0.66 0 0 0 -0.38,-1 12.79,12.79 0 0 0 -2.27,-0.43 l 0.32,-0.21 a 0.76,0.76 0 0 0 -0.21,-1.36 c -0.81,-0.16 -1.66,-0.37 -2.5,-0.49 a 3.3,3.3 0 0 0 -1.39,-1.56 c -0.8,-3.15 -3.25,-5.32 -5.89,-6.92 l 0.86,-0.06 a 15.58,15.58 0 0 0 4,-0.21 0.65,0.65 0 0 0 0.11,-1.16 4.82,4.82 0 0 0 -0.91,-0.29 6.33,6.33 0 0 0 1,-0.37 0.35,0.35 0 0 0 0.2,-0.31 c 4.4,-0.35 8.81,-0.84 13.21,-1.51 a 4.33,4.33 0 0 0 3.08,-2.64 l 2.23,-0.36 c 0.46,-0.08 0.5,-0.83 0.1,-1 a 6.73,6.73 0 0 0 -1.4,-0.5 l 0.22,-0.3 c 0.25,-0.37 -0.13,-0.79 -0.49,-0.8 a 8.66,8.66 0 0 1 -0.89,-0.12 3.08,3.08 0 0 0 -1.29,-0.93 l -5.35,-2.13 0.78,-0.2 c 3.67,-1 3,-6.1 -0.21,-7.09 -11.76,-3.68 -23.11,-5.61 -34.76,-5.06 8.71,-1.08 17.55,-2.06 26,-4.28 a 26.69,26.69 0 0 0 5.46,-1.32 0.68,0.68 0 0 0 0.46,-0.86 c 0.71,-0.12 1.41,-0.24 2.12,-0.4 0.71,-0.16 0.64,-1.07 0.15,-1.4 a 12.11,12.11 0 0 0 -3.76,-2.1 2.84,2.84 0 0 0 -2.2,-0.91 c -1,0 -2,0 -3,0.07 a 3.11,3.11 0 0 0 -1.33,-2.56 l 1.31,-0.18 a 3.41,3.41 0 0 0 0.65,-6.67 l -5.61,-1.95 a 18.29,18.29 0 0 0 -0.59,-7.62 c 0.4,-0.44 0.25,-1.38 -0.42,-1.47 h -0.38 a 3.56,3.56 0 0 0 -2.71,-1.16 c -3.2,0.1 -6.24,0.68 -9.46,0.78 h -0.12 l -4.6,0.2 h -0.35 a 2.77,2.77 0 0 0 -0.78,-0.14 l -5.33,-0.28 c 8.12,-0.58 23.68,-0.63 24.7,-10.43 0.29,-2.79 -1.6,-4.64 -4.38,-4.13 l -0.91,0.13 0.66,-0.79 a 2.33,2.33 0 0 0 1.49,-2.59 l 0.73,-0.11 a 1,1 0 0 0 0.8,-1.5 h 0.17 a 1,1 0 0 0 0.59,-1.34 c 1,-0.23 2,-0.45 2.92,-0.72 1.17,-0.33 0.63,-2.09 -0.54,-1.81 l -0.77,0.19 a 0.5,0.5 0 0 0 -0.42,-0.14 125.71,125.71 0 0 1 -17.07,1.51 l -0.72,-0.07 c 2.42,-1.29 1.53,-4.66 -1.22,-4.92 l -7.75,-0.73 1.57,-0.14 a 3,3 0 0 0 2.77,-2.24 1.11,1.11 0 0 0 0.41,-1.84 c -0.21,-0.17 -0.42,-0.32 -0.63,-0.47 a 3.24,3.24 0 0 0 -0.77,-1 1,1 0 0 0 0.36,-0.61 c 0.74,-0.09 1.49,-0.22 2.23,-0.37 v 0 h 0.24 c 0.9,-0.19 0.87,-1.74 -0.06,-1.84 l -2.38,-0.25 c 0.32,-0.1 0.67,-0.17 1,-0.27 a 0.59,0.59 0 0 0 -0.2,-1.15 51.83,51.83 0 0 0 -12.44,1.28 c -4.46,0 -9.06,0.85 -13.53,1.38 q -9.3,1.08 -18.61,2 l -9.32,0.86 -9.31,0.92 a 4,4 0 0 0 -4.34,-2.14 l -11,1.35 a 3.16,3.16 0 0 0 -0.72,-0.28 l 0.34,-0.16 30.7,-3.42 a 293.64,293.64 0 0 0 30.2,-4.82 2.42,2.42 0 0 0 1.57,-0.59 c 1.45,-0.08 2.91,-0.18 4.36,-0.33 a 0.92,0.92 0 0 0 0.59,-0.29 c 2.36,0 5,0 6.68,-1.31 a 0.68264193,0.68264193 0 0 0 -0.72,-1.16 14.73,14.73 0 0 1 -5.9,1.08 0.84,0.84 0 0 0 -0.73,-0.26 l -1.48,0.14 a 0.62,0.62 0 0 0 -0.3,-0.32 l -0.2,-0.08 0.25,-0.05 a 0.89,0.89 0 0 0 -0.07,-1.71 c -2.08,-0.44 -4.73,-1.25 -7,-1 a 4.6,4.6 0 0 0 -4,-4.92 l -7.36,-0.49 a 0.53,0.53 0 0 0 -0.53,-0.6 c -1.32,0.1 -2.63,0.14 -3.94,0.12 v 0 c 0.72,-0.24 1,-1.39 0.2,-1.72 l -1.49,-0.6 2,-0.82 a 0.84,0.84 0 0 0 0.56,-0.88 c 1.68,-0.16 3.35,-0.36 5,-0.67 0.48,-0.09 0.27,-0.74 -0.14,-0.78 -1,-0.06 -1.9,-0.1 -2.86,-0.12 a 0.79,0.79 0 0 0 -0.76,-1.05 l -4.1,0.36 a 0.57,0.57 0 0 0 -0.63,-0.38 c -3,0 -6.2,0.08 -9.32,0.35 h -1.3 a 0.45,0.45 0 0 0 -0.32,0.13 l -1.6,0.22 a 50.55,50.55 0 0 0 -7,0.21 24.2,24.2 0 0 0 -6.54,1.74 1.84,1.84 0 0 0 -0.66,0.51 c -23.28,2.14 -46.59,5.93 -69.76,9.78 l -13.7,1.51 -13.65,1.88 q -13.63,1.95 -27.26,4.1 c -18.15,2.91 -36.32,6 -54.43,9.62 -1.14,0.25 -1,2.07 0.18,1.83 17.19,-3.27 34.52,-6.1 51.87,-8.91 l -40.88,7.43 -7.36,1.29 -7.39,1.39 -14.86,2.79 a 248.94,248.94 0 0 0 -29.16,7.25 c -1,0.31 -0.54,1.73 0.41,1.66 a 254.76,254.76 0 0 0 30.43,-4.35 c 10.14,-1.92 20.22,-4.34 30.25,-5.84 20.92,-3.36 41.81,-6.74 62.69,-10.32 l 12.67,-2.1 c 4.23,-0.71 8.48,-1.35 12.74,-1.89 l 25.62,-3.43 c 17.08,-2.35 34.13,-4.93 51,-8.34 l 3.79,-0.29 a 3.85,3.85 0 0 0 0.62,2.13 c -11.94,1.38 -24.1,2.45 -35.9,4.73 a 3.29,3.29 0 0 0 -2.71,3.61 l -13.42,2.5 c -10,1.24 -20.06,2.17 -30.21,3 a 1.59,1.59 0 0 0 -1.14,2.33 c -6,1 -12,2.16 -18,3.17 q -22.59,3.87 -45.25,7.42 c -15.16,2.4 -30.77,3.53 -45.6,7.59 -1.47,0.38 -0.74,2.42 0.56,2.4 4,0 7.94,-0.28 11.92,-0.63 l -4.59,0.94 a 2.88,2.88 0 0 0 -2.42,3.55 l -10.27,2.5 -26.24,3.18 v -5.95 l -5.81,0.95 -1,0.16 -28.38,4.34 -28.25,5 -25.1,4.55 a 0.79,0.79 0 0 0 -0.74,-0.51 297.94,297.94 0 0 0 -46.15,1.52 c -13.2,1.77 -30.06,3.18 -41.5,10.52 a 1.13,1.13 0 0 0 0.58,2 c 13.37,1.33 28.64,-4 41.85,-6.12 q 15.12,-2.18 30.3,-4.14 v 0.75 q -13.68,2.71 -27.35,5.54 l -2.81,0.43 -28.25,5 -25.1,4.55 a 0.76,0.76 0 0 0 -0.74,-0.51 c -6.81,-0.24 -13.57,-0.29 -20.32,-0.17 v 4.69 c 1.81,-0.24 3.6,-0.51 5.41,-0.74 v 0.75 c -1.81,0.35 -3.6,0.73 -5.41,1.09 v 2.5 c -6.28,1.46 -12.56,2.86 -18.79,4.53 l -44.3,11.45 a 0.82,0.82 0 0 0 -1,-0.32 l -14.28,4.34 c -7.86,2.12 -15.77,4.07 -23.58,6.39 l -23.43,6.93 q -23.4,7 -46.69,14.32 c -3.41,1 -6.83,2 -10.23,3 l -10.17,3.23 c -20.74,6.61 -41.46,13.3 -62,20.56 -10,3.43 -20.649998,7.15 -30.999998,11.33 -10.35,4.18 -20.4,9 -29,15.28 a 1,1 0 0 0 0.72,1.79 c 9.42,-2.32 18.46,-6.77 27.45,-10.38 11.54,-4.59 22.999998,-9.31 34.839998,-13.2 21.11,-7.19 42.45,-13.75 63.77,-20.34 3.78,-1.13 7.53,-2.38 11.33,-3.44 23.63,-6 47.18,-12.23 70.71,-18.55 11.74,-3.28 23.61,-6 35.43,-9 l 35.48,-8.75 c -18.68,6 -37.21,12.34 -55.79,18.5 -5.82,1.91 -11.58,4 -17.4,5.93 a 1.41,1.41 0 0 0 -1.35,-0.4 c -18,3.76 -35.26,10.8 -52.52,16.85 -5.7,2 -11.44,3.92 -17.12,6 l -63,20.26 -15.73,5.16 c -5.22,1.76 -10.39,3.7 -15.589998,5.56 q -15.54,5.67 -31,11.63 a 1.82,1.82 0 0 0 -0.65,3 90.88,90.88 0 0 0 -16.12,8.47 c -0.7,0.47 -0.6,1.92 0.46,1.81 a 78.27,78.27 0 0 0 11.57,-2.06 2.33,2.33 0 0 0 1.94,0.38 c 7.12,-1.49 14.13,-3.28 21.08,-5.29 -6.2,2.56 -12.29,5.34 -18.22,8.47 a 1.43,1.43 0 0 0 -0.69,0.81 l -2.82,1 v 0 a 0.23,0.23 0 0 0 -0.18,0 l -0.78,0.23 a 0.65,0.65 0 0 0 0.15,1.28 13.49,13.49 0 0 0 2.4,-0.18 0.8,0.8 0 0 0 0.32,0.31 l 0.2,0.09 a 0.93,0.93 0 0 0 1.25,-0.3 1,1 0 0 1 0.18,-0.26 1.31,1.31 0 0 0 1.23,0.12 c 7.23,-2.73 14.5,-5.29 21.78,-7.78 a 41.81,41.81 0 0 0 8.21,-1.38 c -1.52,0.57 -3,1.14 -4.52,1.76 a 0.47,0.47 0 0 0 -0.26,0.46 l -4.33,1.25 a 2.44,2.44 0 0 0 -1.31,3.95 l -0.55,0.17 a 0.68,0.68 0 0 0 0.15,1.33 v 0 a 2.05,2.05 0 0 0 -0.46,1.75 24.78,24.78 0 0 0 -6.06,2.18 0.63,0.63 0 0 0 0.45,1.15 c 2.24,-0.45 4.43,-1.1 6.66,-1.64 a 1.88,1.88 0 0 0 1.61,0.2 c 3.32,-1 6.63,-2.1 9.93,-3.2 l -6.1,2.54 a 2.17,2.17 0 0 0 -1.27,2.44 l -2.77,0.92 a 169.17,169.17 0 0 0 -20.68,6.06 0.54,0.54 0 0 0 -0.23,0.85 c -4.34,1.54 -8.63,3.19 -12.79,5.06 a 1.49,1.49 0 0 0 -0.32,2.49 c -4.81,1.23 -10.299999,2.83 -12.509999,6.36 a 2.31,2.31 0 0 0 0.78,3.1 l 0.11,0.06 a 4.76,4.76 0 0 0 -1.09,0.7 h -0.06 a 0.3,0.3 0 0 0 -0.19,0.25 1.54,1.54 0 0 0 -0.46,1.16 0.61,0.61 0 0 0 0.89,0.53 l 0.35,-0.19 a 0.35,0.35 0 0 0 0.18,-0.32 v -0.13 a 9.85,9.85 0 0 0 1.84,-0.38 0.56,0.56 0 0 0 0.36,-0.84 c 4.579999,-1.15 9.219999,-2.34 13.689999,-3.8 12.58,-2.87 25,-5.78 37.35,-10.27 l 12.199998,-4.46 a 5.09,5.09 0 0 0 4.81,3.95 201.32,201.32 0 0 0 -22.019998,8.7 c -3.88,1.86 -1.71,7.15 1.91,7.4 -8.83,3.4 -17.42,7.47 -24.32,13.14 -0.74,0.61 0.05,1.73 0.87,1.56 15.22,-3.13 29.92,-10.43 44.789998,-15.51 a 2.21,2.21 0 0 0 0.54,-0.1 l 1.32,-0.41 c 4.27,-0.75 8.5,-1.69 12.69,-2.79 -5.93,2.12 -11.87,4.19 -17.84,6.11 a 1.86,1.86 0 0 0 0.89,3.6 l 10.54,-2.22 a 3,3 0 0 0 -0.64,1.9 l -4,1.33 a 1,1 0 0 0 -1.18,-0.38 c -4.3,1.78 -8.61,3.54 -13,5.08 a 1.8,1.8 0 0 0 -1.18,2.21 c -7.349998,2.22 -14.659998,4.56 -21.899998,7.08 a 1.87,1.87 0 0 0 0.93,3.61 c 19.559998,-3.9 38.839998,-9.19 58.129998,-14.44 l 0.27,0.09 c 1.07,0.2 2.28,0.25 3.44,0.43 a 3.23,3.23 0 0 0 -0.6,0.62 0.76,0.76 0 0 0 -0.11,0.7 1.4,1.4 0 0 0 -0.78,1.56 h -0.21 a 0.46,0.46 0 0 0 -0.56,-0.25 c -0.43,0.15 -0.84,0.33 -1.26,0.51 a 11,11 0 0 0 -1.53,0.36 0.68,0.68 0 0 0 -0.45,0.52 48.12,48.12 0 0 1 -4.48,1.95 c -2.32,0.79 -4.72,1.33 -7,2.28 -0.5,0.21 -0.27,1.1 0.26,1.07 a 27.64,27.64 0 0 0 10.2,-3 1.38,1.38 0 0 0 0,0.45 4.64,4.64 0 0 1 -1,0.15 c -2.68,1.08 -5.51,3.45 -8.44,3.16 a 0.51,0.51 0 0 0 -0.44,0.75 c 0.35,0.52 -4.4,1.18 -4.76,1.23 -0.51,0.07 -0.41,0.95 0.1,0.92 a 47.49,47.49 0 0 0 4.79,-0.61 147.16,147.16 0 0 1 -27,8.28 1.55,1.55 0 0 0 -1.299998,2 l -1.24,0.08 a 2.29,2.29 0 0 0 -0.19,-2 0.39,0.39 0 0 0 -0.72,0.07 2.81,2.81 0 0 1 -1.39,2.1 0.81,0.81 0 0 0 -0.34,1 c -0.46,0.17 -0.91,0.35 -1.36,0.55 -0.67,0.3 -0.33,1.29 0.3,1.37 a 0.55,0.55 0 0 0 0.69,0.32 c 2.4,-0.37 4.79,-0.83 7.179998,-1.33 a 16.19,16.19 0 0 0 6.35,-1.37 v 0 l 0.19,-0.07 a 0.66,0.66 0 0 0 0.28,-0.23 183.64,183.64 0 0 0 26.46,-7.22 2.89,2.89 0 0 0 2.53,0.37 l 1.07,-0.31 a 2.07,2.07 0 0 0 0.91,-0.08 c 0.57,-0.19 1.18,-0.41 1.8,-0.67 l 8.46,-2.27 a 2.47,2.47 0 0 0 2.76,2.78 c 2.32,-0.34 4.63,-0.73 6.93,-1.14 a 0.76,0.76 0 0 0 0.11,1.23 c -2.65,0.69 -5.32,1.31 -8,1.8 -0.68,0.12 -0.41,1.14 0.25,1 l 2,-0.29 -3.13,1.29 v 0 c -4.19,1.72 -8.41,3.38 -12.6,5.16 -1.4,0.59 -0.79,3.14 0.72,3 l 1.39,-0.17 c -1.67,0.74 -3.32,1.48 -5,2.29 -4.1,2 -7.45,2.67 -10.6,6.3 a 0.83,0.83 0 0 0 -0.09,0.16 l -1,0.72 a 1.29,1.29 0 0 0 -0.44,0.62 l -1.75,0.48 v 0 a 0.63,0.63 0 0 0 0.31,1.21 c 0.61,-0.08 1.18,-0.2 1.75,-0.32 a 1,1 0 0 0 0.67,0.2 54.49,54.49 0 0 0 9.7,-1.44 c -5.92,2.25 -12,4.55 -17.64,7.34 a 0.51,0.51 0 0 0 -0.57,-0.15 38.48,38.48 0 0 0 -6,3.82 c -0.65,0.41 -1.3,0.81 -1.93,1.25 a 13.23,13.23 0 0 1 -2.66,1.2 0.9,0.9 0 0 0 -0.5,1.3 1.28,1.28 0 0 0 -0.22,1.05 l -0.67,0.2 a 0.94,0.94 0 0 0 -0.45,1.4 40.6,40.6 0 0 1 -5.819998,1.46 c -0.77,0.13 -0.6,1.39 0.17,1.4 a 2,2 0 0 0 0.85,-0.11 28.45,28.45 0 0 0 8.539998,-2.39 c 1.33,-0.24 2.67,-0.44 4.08,-0.57 a 0.61,0.61 0 0 0 0.54,-0.62 c 11.76,-1.75 23.79,-8.05 34.37,-12.48 l 14.57,-6 c 10.29,-2.86 20.42,-7.26 30.39,-10.7 l 30.1,-10.5 15.83,2.09 c -3.26,1.06 -6.53,2.11 -9.76,3.27 l -13.38,4.74 q -26.74,9.51 -53.34,19.32 c -2.34,0.86 -1.56,4.77 1,4 l 41.06,-12.47 20.5,-6.33 c 3.42,-1 6.82,-2.14 10.26,-3.15 l 10.31,-2.95 7.45,-2.13 -2.47,5 -14.77,5 c -22.67,5.73 -45.71,11.7 -67.7,19.82 -2.81,0.55 -5.64,1.08 -8.48,1.55 a 1.69,1.69 0 0 0 -1.36,2.27 c -5.12,2 -10.08,4.5 -15,7 a 0.6,0.6 0 0 0 -0.79,-0.4 l -2.93,0.92 a 0.73,0.73 0 0 0 -0.18,1.3 38.65,38.65 0 0 1 -3.84,0.7 0.59,0.59 0 0 0 -0.26,1 l -0.82,0.4 a 0.52,0.52 0 0 0 0.14,0.92 c -0.15,0.14 -0.32,0.28 -0.47,0.44 a 0.77,0.77 0 0 0 -0.12,0.89 c 0,0.07 0.08,0.09 0.12,0.15 -2.9,1.07 -5.8,2.18 -8.67,3.32 -1.34,0.54 -2.86,0.79 -3.76,2 a 0.89,0.89 0 0 0 0.12,1 l 0.19,0.18 a 0.79,0.79 0 0 0 1,0.16 c 0.91,-0.48 1.83,-1 2.76,-1.39 a 19.33,19.33 0 0 0 2.16,-1 l 5.24,-2.1 c 0,0.3 0.15,0.62 0.5,0.5 l 5.42,-1.74 a 2.25,2.25 0 0 0 1.87,0 c 6.9,-2.45 13.74,-5 20.69,-7.21 a 30.59,30.59 0 0 0 8.51,-2.73 q 22.11,-7 44.35,-13.22 11.15,-3.13 22.36,-6.07 c 2.62,-0.64 5.27,-1.2 7.9,-1.82 l -2.72,5.53 c -17.52,4.92 -34.57,11.2 -51.63,17.49 -10.68,4 -21.63,7.48 -32.37,11.44 -8.47,3 -17,5.9 -25.51,8.63 a 0.29347061,0.29347061 0 0 0 0.14,0.57 c 2.51,-0.54 5,-1.17 7.53,-1.79 -0.85,0.8 0.12,2.39 1.31,2.23 8.05,-1 16,-3.23 23.83,-5.7 7.83,-2.47 15.63,-5.35 23.2,-8.08 14.86,-5.37 29.67,-10.91 44.81,-15.5 7.31,-2.3 14.76,-4.14 22.21,-6 l 18.31,4.5 c -10.14,3.13 -20.33,6.07 -30.63,8.64 -12.42,3.37 -25,6.23 -37.8,8.38 -0.76,0.12 -0.47,1.32 0.28,1.21 11.63,-1.72 23.12,-4.06 34.49,-6.85 11.37,-2.79 22.77,-5.58 34,-8.91 l -3.92,1.42 -26.67,9.67 -26.52,10.08 c -8.76,2 -17.39,5 -25.94,7.55 -6.72,2 -13.59,3.95 -20.26,6.27 -2.66,0.66 -5.33,1.33 -7.95,2.11 -17.15,5 -35,9.65 -51.59,16.7 l -12.939998,4.24 a 0.39,0.39 0 0 0 -0.09,0.7 v 0 c -0.48,0.19 -0.28,1 0.21,0.82 1.91,-0.74 3.839998,-1.39 5.769998,-2 a 2,2 0 0 0 2.09,2.69 c 11.53,-2.5 22.87,-6 34.19,-9.52 a 30.58,30.58 0 0 0 -5.16,3.34 1.76,1.76 0 0 0 -0.6,1.17 c -3.39,1.25 -6.74,2.59 -10,4 -0.45,0.2 -0.13,1 0.33,0.83 3.37,-0.89 6.77,-2 10.14,-3.1 a 1.88,1.88 0 0 0 1.54,0.81 37.5,37.5 0 0 0 10.13,-2.07 4,4 0 0 0 2.23,2.35 2.08,2.08 0 0 0 0.57,2.74 c -1.87,1.38 -3.87,2.44 -5.48,4.15 a 2,2 0 0 0 -0.6,1.77 66.52,66.52 0 0 0 -6.92,3.7 0.88,0.88 0 0 0 0.41,1.62 c 1,0 2,-0.06 3,-0.11 l -8,2.45 a 0.42323162,0.42323162 0 0 0 0.21,0.82 c 4.88,-1.24 9.81,-2.53 14.71,-3.94 9.1,-1.37 18.09,-4.28 26.85,-6.61 12.05,-2.94 24,-6.24 35.93,-9.6 q 14.84,-4.17 29.43,-9.07 l 29.13,-10 q 22.1,-5.55 44.09,-11.44 l 18.4,-4.93 a 3.5,3.5 0 0 0 0.43,1.85 c 3.95,7.26 16,2.27 22.48,0.1 l -4,1.94 a 2.68,2.68 0 0 0 -0.56,0.36 l -0.26,0.1 -3.7,1.39 h -0.11 c -2.52,1 -5.06,1.5 -7.57,2.45 a 3,3 0 0 0 -1.72,1.77 l -0.28,0.15 a 0.58,0.58 0 0 0 -0.28,0.62 c -8,2.52 -15.85,5.61 -23.61,8.72 -0.26,0.11 0,0.6 0.22,0.52 7.95,-2.66 16,-5.4 23.73,-8.66 0,0 0.05,0.06 0.09,0.07 0,0.33 0.1,0.62 0.16,0.93 -4.28,1.35 -8.55,2.77 -12.76,4.33 -6,2.25 -12.09,4.5 -18,7 -4.31,1.92 -8.92,3.62 -13,6.16 -2.44,1 -4.86,2.1 -7.24,3.2 -0.24,0.12 0,0.6 0.21,0.5 1.35,-0.55 2.7,-1.08 4.06,-1.6 -0.42,0.33 -0.84,0.65 -1.23,1 -0.39,0.35 0,1 0.42,1 a 29,29 0 0 0 4.05,-0.57 1.3,1.3 0 0 0 0.86,0.7 17.16,17.16 0 0 0 3.64,0.18 1.53,1.53 0 0 0 0.74,1.61 2.78,2.78 0 0 0 -0.05,2 16.09,16.09 0 0 0 -4.71,2.52 1.11,1.11 0 0 0 -0.32,1 c -1.73,0.61 -3.44,1.27 -5.08,2 -0.22,0.1 -0.07,0.59 0.17,0.54 1.78,-0.4 3.57,-0.9 5.35,-1.45 a 1,1 0 0 0 0.64,0.38 13.15,13.15 0 0 0 3.2,-0.11 165.17,165.17 0 0 0 -16.73,7.19 c -0.72,0.37 -0.49,1.7 0.17,2.1 -1,0.37 -1.95,0.72 -3,1 -0.26,0.08 0,0.57 0.21,0.5 v 0 c 0,0.16 0.12,0.39 0.29,0.32 l 6.41,-2.51 c 8.94,-2.23 17.56,-6.13 26,-9.63 l 3.89,-1.6 c 3.48,-1 6.89,-2.28 10.29,-3.45 4.32,-1.48 8.8,-2.78 13,-4.65 l 14.08,-3.52 c 2.22,-0.52 4.45,-1 6.68,-1.52 l -1,0.45 1.61,-0.59 6.85,-1.5 2.08,-0.46 c -5.72,1.76 -11.4,3.63 -16.93,5.92 a 153.63,153.63 0 0 0 -16.18,7.86 c -0.34,0.19 -0.05,0.91 0.3,0.73 a 159.46,159.46 0 0 1 18,-8.15 c 6.17,-2.25 12.45,-4.17 18.79,-5.89 6.34,-1.72 12.74,-3.25 19.16,-4.7 6.42,-1.45 12.92,-2.63 19.36,-4 q -6.15,2 -12.27,4.13 c -7.84,2.74 -15.54,5.94 -23.3,8.94 -3.87,1.51 -7.75,3 -11.65,4.44 -3.9,1.44 -7.69,2.79 -11.69,4.17 -7.58,2.6 -15.35,4.58 -23.09,6.69 -3.95,1.07 -8,2.11 -12,3.44 a 48.94,48.94 0 0 0 -11.26,5.36 c -0.51,0.34 -0.33,1.5 0.28,1.61 -1.18,0.57 -2.37,1.13 -3.53,1.72 -0.17,0.09 0,0.41 0.14,0.35 4.26,-1.6 8.55,-3.08 12.86,-4.52 5.58,-1.58 11.14,-3.28 16.72,-4.75 8.92,-2.3 17.76,-4.72 26.42,-7.8 7.71,-2.63 15.31,-5.56 22.91,-8.53 7.6,-2.97 15.17,-6.06 22.89,-8.66 7.72,-2.6 15.51,-5.25 23.3,-7.77 3.9,-1.23 7.78,-2.53 11.72,-3.67 l 11.8,-3.4 c 7.74,-2.2 15.53,-4.25 23.33,-6.25 h 0.23 l -4.63,1.21 c -7.55,2 -15.18,4 -22.69,6.41 -3.76,1.2 -7.5,2.45 -11.16,3.88 -3.66,1.43 -7.26,3 -10.79,4.76 -0.23,0.11 -0.07,0.55 0.17,0.47 3.68,-1.15 7.33,-2.37 11,-3.61 l 11,-3.55 c 7.33,-2.34 14.69,-4.61 22.17,-6.52 l 0.3,-0.07 c -1.88,0.59 -3.75,1.22 -5.61,1.87 -1.55,0.53 -3.57,0.84 -4.95,1.82 a 10.57,10.57 0 0 0 -1,0.8 c -0.73,0.17 -1.46,0.36 -2.21,0.6 -0.43,0.13 -0.14,1 0.29,0.86 l 2.9,-0.83 a 30.26,30.26 0 0 1 3.21,-0.51 c 0.21,0 0.23,-0.27 0.15,-0.45 l 10.88,-3.12 5.45,-1.51 5.49,-1.34 c -2.55,1 -5.09,2.06 -7.57,3.3 -9.35,2.33 -18.68,4.8 -27.92,7.54 -4.62,1.39 -9.24,2.75 -13.78,4.39 -4.54,1.64 -9.08,3.31 -13.56,5.11 -8.4,-0.43 -17.33,3 -24.77,5.36 -9.63,3.19 -19.05,7 -28.46,10.81 -3.64,1.46 -7.28,2.86 -10.92,4.25 -3.64,1.39 -7.25,2.84 -10.9,4.19 q -10.92,4.06 -22,7.68 a 12.26,12.26 0 0 0 -4.29,1.38 l -10.52,3.4 a 1.05,1.05 0 0 0 -0.71,0.68 c -0.89,0.33 -1.78,0.68 -2.68,1 -0.18,0.06 -0.14,0.29 0,0.43 l -2.74,0.76 a 7.35,7.35 0 0 0 -1.16,0.26 c -0.51,0.1 -1,0.19 -1.55,0.25 a 0.4,0.4 0 0 0 -0.3,0.42 v 0.16 a 0.67,0.67 0 0 0 0.32,0.58 c 0.77,0.3 1.44,-0.1 2.14,-0.3 1.5,-0.41 3,-0.86 4.48,-1.32 a 0.53,0.53 0 0 0 0,0.12 0.51,0.51 0 0 0 0.35,0.41 l 0.34,0.07 c -0.12,0.17 0,0.55 0.26,0.52 l 0.45,-0.08 c 0,0.27 0.22,0.58 0.46,0.43 0.56,-0.36 1.13,-0.68 1.71,-1 -0.08,0.37 0.25,0.71 0.53,0.61 l 1.43,-0.55 c 0.2,-0.07 0.23,-0.28 0.17,-0.48 2.74,-0.42 5.45,-1 8.17,-1.58 0.23,0.6 0.74,1 1.31,0.74 1.27,-0.69 2.56,-1.34 3.85,-2 11.39,-3 22.43,-7.42 33.3,-11.86 l 16.63,-4.18 a 223.17,223.17 0 0 0 23.5,-7.55 c 7.73,-2.75 15.38,-5.78 23.07,-8.84 2.67,-1.06 5.35,-2.05 8.05,-3 a 0.42,0.42 0 0 0 0.25,0.1 17.93,17.93 0 0 0 5.24,-0.54 c 1.72,-0.45 3.61,-1.39 5.46,-1.16 2.05,0.25 3,1.25 2.77,3.12 q -18.81,5 -37.49,10.56 c -6.87,2 -13.67,4.21 -20.5,6.32 l -20.47,6.44 c -6.85,2.07 -13.59,4.45 -20.38,6.7 l -20.26,6.9 c -1.24,0.44 -0.21,2.74 1,2.43 18.29,-4.73 36.38,-10 54.63,-14.64 -0.27,0.2 -0.55,0.38 -0.82,0.59 a 1.15,1.15 0 0 0 0.49,1.75 2.5,2.5 0 0 0 1.58,-0.06 0.25,0.25 0 0 0 0.13,-0.09 c 4,-0.52 7.84,-2.13 11.62,-3.64 0,0.44 0,0.95 -0.1,1.41 -0.45,0.49 -0.9,1 -1.37,1.49 l -29.64,7.92 -18.28,5.24 c -5,1.46 -10.45,2.46 -15.41,4.33 -2.57,0.54 -5.14,1.06 -7.67,1.7 -5.53,1.39 -12.26,2.34 -17.32,5.53 a 0.29,0.29 0 0 0 -0.41,-0.13 c -0.58,0.42 -1.16,0.79 -1.74,1.13 a 11.09,11.09 0 0 0 -4.06,1.74 c -0.11,0 -0.19,0.09 -0.35,0.24 -0.16,0.15 0.09,1 0.43,0.77 a 15.39,15.39 0 0 1 2.7,-1.27 c 0,0.34 0.38,0.69 0.66,0.56 l 0.32,-0.13 a 0.88,0.88 0 0 0 0.45,0.46 c 0.07,0.33 0.37,0.6 0.65,0.49 a 5.21,5.21 0 0 1 1.42,-0.3 c 0.39,0 0.78,0 1.16,0 a 15.35,15.35 0 0 0 3.59,-0.12 0.26,0.26 0 0 0 0.17,-0.28 78.48,78.48 0 0 0 9.17,-2.34 21.15,21.15 0 0 0 -4.14,2.63 0.51,0.51 0 0 0 -0.19,0.33 7.56,7.56 0 0 0 -0.76,0.45 c -0.35,0.23 0,0.85 0.3,0.72 v 0 l 0.82,-0.36 a 0.61,0.61 0 0 0 0.38,0.16 h 0.64 l 0.09,0.06 c 2.44,0.78 3.92,-0.05 6.14,-0.43 0.89,-0.15 1.77,-0.34 2.65,-0.54 l -0.58,0.4 c -0.61,0.45 0,2 0.75,1.8 2.16,-0.57 4.36,-1 6.55,-1.5 v 0 l 1.64,-0.34 -0.88,0.5 c -0.29,0.18 0,0.8 0.26,0.64 1.2,-0.62 2.43,-1.16 3.68,-1.67 -0.05,0.3 0.09,0.66 0.37,0.68 -1,0.54 -2,1.09 -3,1.66 -0.79,0.45 -0.65,1.69 -0.11,2.37 l -4,1.55 a 5.73,5.73 0 0 0 -0.91,0.25 0.84,0.84 0 0 0 -0.36,0.27 l -0.51,0.21 a 1.4,1.4 0 0 0 -0.82,1.07 69.9,69.9 0 0 0 -12.29,5.41 0.35,0.35 0 0 0 -0.18,0 h -0.09 v 0 a 6.35,6.35 0 0 0 -2.82,1.48 c -1.05,0.57 -2.1,1.16 -3.11,1.79 a 0.31,0.31 0 0 0 -0.14,0.41 c -0.21,0.26 0,0.88 0.37,0.8 l 0.69,-0.18 c 0.08,0.23 0.27,0.43 0.47,0.4 a 1.5,1.5 0 0 1 1.25,0.6 c 0.15,0.15 0.33,0 0.29,-0.21 a 1.81,1.81 0 0 0 -0.61,-1.07 l 0.48,-0.39 c 0.24,0.5 0.68,0.85 1.17,0.57 a 55,55 0 0 1 12.83,-5 17.21,17.21 0 0 0 -2,1.34 c -0.2,0.16 0.06,0.65 0.27,0.51 0.21,-0.14 2.14,-1.4 2.19,-1 0.05,0.4 0.3,0.38 0.41,0.24 1,-1.16 2.84,-0.92 4.2,-1.28 a 2.2,2.2 0 0 1 0.43,-0.27 0.75,0.75 0 0 0 0.13,0.25 10.43,10.43 0 0 0 -4.8,2 c -0.21,0.17 0,0.71 0.27,0.65 1.17,-0.3 2.24,-0.85 3.36,-1.24 a 13.06,13.06 0 0 1 2.33,-0.5 0.37,0.37 0 0 0 0.35,0.12 3.88,3.88 0 0 0 0.7,-0.3 l 0.65,-0.14 c 0.12,0 0.15,-0.18 0.12,-0.32 l 0.09,-0.06 a 0.84,0.84 0 0 0 0.82,0.57 0.6,0.6 0 0 0 0.28,0.34 2.15,2.15 0 0 0 0.44,0.13 c -0.38,0.46 -0.81,0.88 -1.15,1.34 l -0.08,0.13 a 275.71,275.71 0 0 0 -26.33,12.32 c -1,0.56 -0.13,2.53 0.93,2.17 3.51,-1.18 7,-2.48 10.43,-3.86 0.21,0.5 0.67,0.91 1.19,0.73 2.13,-0.71 4.3,-1.28 6.48,-1.84 0.25,-0.06 0.34,-0.33 0.3,-0.6 l 1.91,-0.68 a 1.91,1.91 0 0 0 0.88,0.76 l -4.6,2.47 c -1,0.54 -0.14,2.56 0.91,2.17 2.83,-1 5.69,-2 8.57,-2.95 a 55.58,55.58 0 0 0 -5.57,2.9 l -0.61,0.24 a 1,1 0 0 0 -0.24,0.14 c -7.12,2.46 -15,3.74 -21.56,7.33 -0.36,0.2 -0.25,1 0.23,1.1 a 33.34,33.34 0 0 0 13.34,-1.55 c -1.22,1.37 -0.17,4.83 1.86,4.47 a 72.64,72.64 0 0 0 10.91,-3.05 c -0.87,0.78 -0.9,2.34 -0.39,3.69 l -5.89,1.85 a 108.85,108.85 0 0 0 -16.85,7.41 c -2.1,0.76 -4.16,1.73 -6.18,2.7 -0.06,-0.22 -0.23,-0.4 -0.43,-0.31 a 3.21,3.21 0 0 0 -0.78,0.43 l -0.05,-0.07 a 0.18,0.18 0 0 0 -0.18,-0.1 h -0.19 c -0.22,0 -0.27,0.33 -0.12,0.57 a 1,1 0 0 0 0.57,0.44 0.17,0.17 0 0 0 0.16,0.06 v 0 a 2.23,2.23 0 0 0 0.63,0 v 0.07 a 1.83,1.83 0 0 0 0.82,1.85 c 2,1.06 4.52,0 6.65,-1 0,0.61 0.41,1.3 1,1.17 a 57.52,57.52 0 0 0 6.26,-1.73 c 0,0.2 0.19,0.43 0.38,0.36 a 58.89,58.89 0 0 0 9.4,-3.89 l 1.3,-0.46 c 0.29,0.56 0.75,1 1.28,0.83 l 3,-0.76 q -2.32,0.83 -4.61,1.71 a 0.84,0.84 0 0 0 -0.5,0.66 c -1,0.47 -2,0.89 -2.91,1.41 -0.29,0.16 -0.11,0.78 0.23,0.75 a 8.84,8.84 0 0 0 2.88,-0.93 1.41,1.41 0 0 0 0.77,0.75 v 0 c -0.23,0.31 0,0.86 0.4,0.74 l 0.25,-0.11 c 0.11,1 0.9,2 1.79,1.58 l 1.95,-0.83 c 0.07,0.1 0.15,0.18 0.25,0.15 0.74,-0.18 1.46,-0.39 2.19,-0.61 a 14.36,14.36 0 0 0 -3.36,2.06 c -3.4,1.18 -6.83,2.31 -10.31,3.35 a 0.57,0.57 0 0 0 -0.39,0.48 l -0.15,-0.07 c -0.25,-0.16 -0.46,0 -0.54,0.26 v 0.12 a 0.57,0.57 0 0 0 0,0.26 5.08,5.08 0 0 0 -0.9,0.72 c -0.26,0.27 0.08,0.84 0.39,0.71 l 0.35,-0.14 a 0.12,0.12 0 0 0 0.06,-0.06 v 0 l 1.34,-0.41 a 0.68,0.68 0 0 0 0.52,0.18 73.79,73.79 0 0 0 9.28,-1.78 97.62,97.62 0 0 0 -9.18,4.39 1,1 0 0 0 -0.54,0.85 26.44,26.44 0 0 0 -4.73,2.83 c -0.41,0.31 0.06,1.08 0.47,1.09 a 32.54,32.54 0 0 0 8.51,-1.06 c 0,0.67 0.59,1.51 1.25,1.32 q 7.39,-2.1 14.71,-4.42 l 7.31,-2.32 7.34,-2.26 29.25,-9.29 c 2.73,-0.67 5.47,-1.28 8.21,-1.91 8.29,-1.88 16.86,-3.21 24.69,-6.52 a 0.71,0.71 0 0 0 0.39,-0.63 c 2.76,-0.65 5.51,-1.34 8.3,-1.89 8.91,-1.77 17.85,-3.38 26.7,-5.27 l -16.09,5 c -5.36,1.69 -10.75,3.28 -16.07,5.12 -10.65,3.58 -21.29,7.2 -31.86,11 -1.75,0.52 -3.46,1.13 -5.19,1.7 -9.76,3.27 -19.5,6.55 -29.39,9.43 -5.52,1.55 -11,3.15 -16.57,4.61 -4.32,1.15 -9,1.89 -13,3.86 -0.5,0.24 -0.13,1.13 0.37,1.16 a 48,48 0 0 0 15.17,-1.82 c 5,-1.29 9.85,-3.07 14.57,-4.31 9.66,-2.65 19.19,-5.66 28.71,-8.71 3.11,-1 6.21,-2 9.34,-2.94 q 10.83,-2.94 21.59,-6.11 l 10.74,-3.2 c 3.58,-1.09 7.19,-2.05 10.78,-3.1 l 6.67,-1.56 c 0.2,0 0.28,-0.23 0.27,-0.44 l 20.14,-5.94 c 6.71,-2 13.47,-3.78 20.21,-5.67 l 20.2,-5.67 20.23,-5.48 c -5.86,2.32 -11.8,4.42 -17.71,6.51 -5.91,2.09 -13.14,3.09 -18,7.27 -0.34,0.29 -0.18,1.2 0.3,1.29 6.41,1.25 13.32,-2.37 19,-4.66 a 102.53,102.53 0 0 0 18.86,-10.06 c 0.3,-0.2 0.18,-0.73 -0.07,-1 l 10,-2.75 v 0.54 a 83.51,83.51 0 0 0 -9.15,3.6 c -0.89,0.42 -0.56,2.57 0.51,2.42 a 77.57,77.57 0 0 0 8.9,-1.82 v 0 l 0.58,-0.16 c 1.91,-0.5 3.82,-1 5.72,-1.61 q 15.42,-4.33 30.86,-8.63 l 28.39,-7.25 c 3.37,-0.54 6.71,-1.52 9.88,-2.3 2.84,-0.7 5.71,-1.48 8.53,-2.41 l 20.86,-5.33 1.09,1.88 c 3,-0.68 6,-1.32 9.08,-1.88 l 18.51,-3.58 37,-7.2 c 3.09,-0.59 6.17,-1.23 9.26,-1.78 l 9.29,-1.6 18.59,-3.19 37.16,-6.41 c 11.49,-1.82 23,-3.45 34.52,-5.18 a 0.89,0.89 0 0 0 0.23,0 c 5.39,-0.65 10.72,-1.49 16,-2.45 l 18.85,-2.84 18.93,-2.53 q 18.91,-2.57 37.81,-5.38 l 25.77,-1.67 q 12.87,-0.93 25.7,-2.47 c 10.31,-1.26 20.63,-2.56 30.9,-4.17 7.54,-1 15.43996,-1.67 22.91996,-3.55 4.25,-0.49 8.48,-1.08 12.66,-1.7 0.44,-0.06 0.33,-0.75 -0.1,-0.71 l -7,0.71 c 0.79,-0.29 1.59,-0.56 2.37,-0.89 a 0.75,0.75 0 0 0 -0.21,-1.39 55.21,55.21 0 0 0 -6.55,-0.63 1.7,1.7 0 0 0 -1,-1.18 31.77,31.77 0 0 0 -5.58,-1.44 1.74,1.74 0 0 0 -0.45,-2.3 3.35,3.35 0 0 0 1,-2.54 31.72,31.72 0 0 0 8.51,-1.67 1.55,1.55 0 0 0 0.92,-1.12 c 3,-0.21 6,-0.48 8.85,-0.87 0.4,-0.06 0.4,-0.74 0,-0.75 -3,-0.08 -6,0 -9,0.08 a 1.5,1.5 0 0 0 -0.84,-0.7 25.45,25.45 0 0 0 -5.07,-0.93 c 9.9,-0.91 19.8,-1.88 29.5401,-3.66 a 1.66,1.66 0 0 0 0.74,-2.76 c 1.7,-0.15 3.39,-0.27 5.11,-0.31 0.44,0 0.33,-0.72 -0.1,-0.71 v 0 a 0.33,0.33 0 0 0 -0.29,-0.51 l -11.2401,1.1 c -15.09,-0.11 -30.44,2 -45.31996,3.73 -2.28,0.24 -4.55,0.58 -6.83,0.93 -5.92,0.35 -11.84,1.1 -17.71,1.69 -7.45,0.75 -15.08,1.23 -22.51,2.52 l -23.78,0.76 -23.76,1.12 -3.49,0.16 c 9.78,-1 19.51,-2.5 29.21,-4.07 9.7,-1.57 19.34,-3.42 28.9,-5.84 0.62,-0.15 0.45,-1.17 -0.18,-1 -10.6,2.46 -21.25,4.31 -32,5.71 -8.8,1.34 -17.63,2.35 -26.49,3.2 l 12.72,-9.39 c 6.36,-1 12.72,-2 19.12,-2.55 13.2,-1.34 26.45,-1.82 39.68,-2.46 6.74,-0.33 13.68,-0.58 20.57,-1.24 a 113.92,113.92 0 0 0 20.27996,-3.27 c 1,-0.27 1.2,-1.82 0.29,-2.15 2.14,-0.34 4.29,-0.66 6.41,-1.05 a 0.25,0.25 0 0 0 -0.08,-0.49 c -7.5,0.65 -14.99996,1.13 -22.52996,1.56 -9.59,0.4 -19.19,1.22 -28.75,1.59 -15.23,0.64 -30.45,1.28 -45.6,3.13 l -3.89,-3.4 c 2.24,-0.38 4.47,-0.8 6.7,-1.15 q 9.64,-1.33 19.27,-2.52 19.26,-2.36 38.59,-4.08 a 25.57,25.57 0 0 0 7.47,-0.63 c 6.08,-0.54 12.21,-0.77 18.34,-1.09 a 2,2 0 0 0 1.43996,-0.63 l 4.75,-0.41 c 0.31,0 0.35,-0.32 0.23,-0.54 l 4.73,-0.07 a 15.6,15.6 0 0 0 2,0 c 0.86,0 1.72,0.11 2.58,0.19 a 0.67,0.67 0 0 0 0.69,-0.43 l 0.09,-0.2 a 0.76,0.76 0 0 0 -0.25,-0.85 c -1.09,-0.64 -2.34,-0.35 -3.55,-0.33 q -3.9,0.07 -7.78,0.23 c 0,-0.06 0,-0.09 0,-0.15 a 0.64,0.64 0 0 0 -0.38,-0.65 5.27,5.27 0 0 0 -0.51,-0.19 c 0.26,-0.19 0.19,-0.73 -0.18,-0.76 h -0.77 c 0.12,-0.36 -0.08,-0.82 -0.53,-0.72 -1.06,0.28 -2.11996,0.52 -3.19996,0.7 a 0.61,0.61 0 0 0 -0.56,-1 l -2.56,0.23 a 0.52,0.52 0 0 0 -0.49,0.57 c -4.6,-0.33 -9.23,-0.62 -13.85,-0.56 a 1.41,1.41 0 0 0 -1.79,-1.31 c -2.35,0.55 -4.71,1.06 -7.06,1.53 -19.64,0.81 -39.4,3.64 -58.8,6.51 l -13,0.94 -3.53,-3.08 6.45,-0.75 8.94,-1 c 3,-0.33 6,-0.58 9,-0.87 l 17.91,-1.72 35.8,-3.6 c 2.2,-0.23 1.54,-3.51 -0.55,-3.42 q -23.75,1 -47.51,2.26 l -11.89,0.65 c -2.87,0.14 -5.74,0.38 -8.61,0.62 l 11.58,-6.73 26.69,-1.59 c 8.83,-0.55 18.08,-0.42 27,-1.52 l 13.2,-0.09 c 9.62,0 20.99996,1 30.62996,-1.43 a 0.48,0.48 0 0 0 0.61,0.3 c 1.14,-0.35 2.24,-0.62 3.35,-0.87 a 23.92,23.92 0 0 0 7.38,-0.91 1.71,1.71 0 0 0 0.69,-0.19 c 0.6,-0.25 0.32,-1.28 -0.32,-1.14 a 33.42,33.42 0 0 1 -5,0.76 0.8,0.8 0 0 0 -0.81,-1 l -0.58,0.07 a 1,1 0 0 0 -0.5,-0.74 0.77,0.77 0 0 0 -0.81,-0.85 11.15,11.15 0 0 1 -2.45,-0.07 c -0.63,-0.14 -1.26,-0.23 -1.9,-0.34 a 32,32 0 0 0 -5.88,-1 0.45,0.45 0 0 0 -0.4,0.3 c -5.26,-0.34 -10.69996,-0.16 -15.99996,0 a 45.71,45.71 0 0 0 7.99996,-2 0.9,0.9 0 0 0 0.45,-0.37 c 0.49,-0.1 1,-0.19 1.46,-0.32 a 0.53,0.53 0 0 0 -0.15,-1 v 0 l -1.5,0.19 a 1.11,1.11 0 0 0 -0.54,-0.34 l -1,-0.21 a 0.38,0.38 0 0 0 -0.11996,-0.1 c -3.61,-1.8 -6.41,-1.22 -10.24,-1.46 -1.52,-0.1 -3.05,-0.14 -4.57,-0.17 l 1.13,-0.32 c 1.21,-0.38 0.86,-2.56 -0.41,-2.56 -3.82,0 -7.62,0 -11.43,0.07 h -2.87 l 1.67,-0.42 c 0.54,-0.15 0.42,-1 -0.14,-0.91 -2.25,0.5 -4.52,0.88 -6.79,1.2 a 0.63,0.63 0 0 0 -0.31,-1 q 2.86,-0.65 5.73,-1.36 a 2.07,2.07 0 0 0 1.24,-3 l 7.28,-1 c 0.56,0 1.11,0 1.61,-0.07 a 1.61,1.61 0 0 0 0.72,-0.23 l 0.93,-0.11 a 2.41,2.41 0 0 0 1.85,-1.1 152.71,152.71 0 0 0 22.79996,-3 0.53,0.53 0 0 0 0.29,0.09 h 0.2 a 13.6,13.6 0 0 0 5.35,-1 c 2,-0.38 4,-0.8 6,-1.29 a 0.47,0.47 0 0 0 0.43,-0.47 c 0.46,-0.26 0.41,-1.14 -0.21,-1.16 -0.41,0 -0.82,0 -1.23,0 a 0.66,0.66 0 0 0 -0.58,-0.67 2.36,2.36 0 0 1 -1.99,-1.13 0.33,0.33 0 0 0 -0.58,0.17 1.88,1.88 0 0 0 0.49,1.58 l -1,0.34 a 1.31,1.31 0 0 0 -1.65,-1.11 123.14,123.14 0 0 1 -23.58996,2.32 39.13,39.13 0 0 0 3.91,-1.08 c 0.41,-0.14 0.19,-0.85 -0.22,-0.74 -0.41,0.11 -4.18,1.1 -4.08,0.58 a 0.43,0.43 0 0 0 -0.59,-0.44 c -2.17,1.17 -5.12,0.25 -7.55,0.28 a 3.49,3.49 0 0 1 -0.83,0.21 1,1 0 0 0 -0.1,-0.37 22.89,22.89 0 0 0 8.87,-1 0.49,0.49 0 0 0 -0.15,-0.91 c -2.07,0 -4.1,0.36 -6.15,0.49 a 39.87,39.87 0 0 1 -4.09,-0.06 0.62,0.62 0 0 0 -0.52,-0.26 9.81,9.81 0 0 0 -1.3,0.22 c -0.38,0 -0.76,0 -1.14,0 a 0.37,0.37 0 0 0 -0.35,0.38 l -0.18,0.05 a 1.16,1.16 0 0 0 -1.1,-1 0.66,0.66 0 0 0 -0.31,-0.51 3.61,3.61 0 0 0 -0.66,-0.28 c 0.83,-0.51 1.75,-1 2.52,-1.44 0.07,0 0.12,-0.11 0.18,-0.16 16.62,-2.17 33.24996,-4.29 49.64996,-7.59 a 1.56,1.56 0 0 0 -0.45,-3.08 c -6.41,0.37 -12.83,0.93 -19.23,1.58 a 1.51,1.51 0 0 0 -1.63,-1.33 c -3.89,0.22 -7.78996,0.26 -11.69996,0.27 a 0.8,0.8 0 0 0 -0.79,0.67 l -3.51,0.26 a 2.6,2.6 0 0 0 -1.11,-1.27 l 8.87,-1.68 a 1.56,1.56 0 0 0 -0.47,-3.08 c -5.25,0.45 -10.51,0.77 -15.78,1 q 5.4,-0.74 10.72,-1.93 l 1.15,-0.11 a 2.07,2.07 0 0 0 0.46,-0.1 c 13.13996,-0.86 26.86996,0 39.65996,-2.45 0.69,-0.14 0.94,-1.25 0.17,-1.48 -7.17,-2.17 -15.13,-2.55 -23.06,-2.32 2.72,-1.37 2.69,-6.16 -0.91,-6.35 a 170.43,170.43 0 0 0 -19.90996,0.4 4.26,4.26 0 0 0 2.45,-4.6 l 10.87996,-0.49 c 11,-0.51 21.56,-2.27 32.22,-4.1 3.9301,-0.32 7.9101,-0.89 11.8201,-1.48 a 0.47,0.47 0 0 0 0.55,0.53 7.41,7.41 0 0 0 1.55,-0.3 v 0.11 a 0.3,0.3 0 0 0 0.24,0.18 h 0.34 a 0.51,0.51 0 0 0 0.57,-0.52 z m -920.00006,52.18 a 0.65,0.65 0 0 0 -0.13,-0.52 v -0.06 c 1.85,-0.05 3.3,-1 5.08,-1.84 a 12.3,12.3 0 0 1 2.27,-0.73 0.61,0.61 0 0 0 0.07,0.14 z m 57.23,-10.23 a 2.69,2.69 0 0 0 -0.65,0.46 c -2.59,0.89 -5.2,1.73 -7.8,2.55 l 6.81,-2.32 a 3.73,3.73 0 0 0 2.36,-2.18 l 6,-2 c -2.25,1.14 -4.48,2.33 -6.7,3.46 z m -51.11,66.1 a 0.66,0.66 0 0 0 -0.54,-0.24 c -1.54,0.12 -0.48,-0.31 0.81,-0.77 a 2.78,2.78 0 0 0 0.16,0.85 z m 22.6,46.21 a 2.15,2.15 0 0 0 -0.49,0.51 7.51,7.51 0 0 0 -0.11,-2.06 q 3.5,-1.31 7,-2.47 c -2.17,1.26 -4.32,2.59 -6.4,4.02 z m 4.45,-11.83 a 3.23,3.23 0 0 0 0.33,-0.93 l 5.38,-1.61 c -1.95,0.77 -3.83,1.66 -5.71,2.54 z m 139.1,-25 3.31,-1.29 5,-1.08 z m 20.41,-8.06 1.53,-0.62 0.24,0.1 z m -22.16,36.63 a 5.8,5.8 0 0 0 -0.68,-1.1 1,1 0 0 0 0.37,0.09 c 1.33,0 2.64,-0.09 3.95,-0.21 -1.2,0.38 -2.42,0.79 -3.64,1.22 z m 6,3.86 a 2.21,2.21 0 0 0 -0.45,-0.37 c 1.05,-0.2 2.09,-0.44 3.14,-0.69 -0.87,0.28 -1.79,0.65 -2.65,1.01 z m 0.9,27.14 a 0.35,0.35 0 0 0 0.12,-0.31 l 0.22,-0.07 a 2.3,2.3 0 0 0 0.24,0.5 c -0.65,0.18 -1.2,0.33 -0.58,-0.12 z m 19.73,30.2 a 4.61,4.61 0 0 0 -2.5,0.8 v -0.05 a 0.58,0.58 0 0 0 -0.13,-0.31 l 3.7,-0.94 a 0.3,0.3 0 0 1 0,0.1 4.63,4.63 0 0 1 -1.06,0.37 z m 23.27,-12.47 a 1.74,1.74 0 0 0 -1.63,-0.39 l -3.38,1 q 1.91,-0.63 3.84,-1.2 a 1.05,1.05 0 0 0 0.4,0 c 1.22,-0.12 2.47,-0.22 3.74,-0.31 z m 77.55,-73.28 a 10.49,10.49 0 0 0 -1.41,-0.54 1.87,1.87 0 0 0 -0.2,-0.29 c 1.91,-0.07 3.92,-0.13 5.89,-0.35 l -2.4,0.68 c -0.46,0.13 -0.21,1.14 0.26,1.06 l 1.8,-0.32 c -1.27,0.5 -2.56,0.95 -3.88,1.33 l 0.15,-0.12 a 1,1 0 0 0 -0.17,-1.45 z m 2.64,2.16 -1.63,0.29 a 38,38 0 0 0 6.18,-2.27 l 1.57,-0.75 6.73,-1 c -4.25,1.22 -8.56,2.37 -12.81,3.73 z m 68.63,-8.56 c -0.06,-0.68 -0.64,-1.42 -1.25,-1.24 l -6,1.77 3.73,-1.27 a 0.72,0.72 0 0 0 0.43,-0.7 24.41,24.41 0 0 1 4.26,-0.14 v 0 a 2.25,2.25 0 0 0 0.23,1.24 z m 331,42.35 -6.67,0.93 v -0.51 l -6.58,0.56 -0.14,-0.33 c 4.48,-0.35 9,-0.67 13.43,-1 a 1.81,1.81 0 0 0 0.03,0.35 z m -6.67,-3.57 v -1 l 6.23,-0.56 6,-0.08 z m 33.94,-1.83 0.15,-0.16 h 1.38 z m 12.77,0.32 4.19,-0.77 3,-0.06 z m 130.14,-20.12 a 6.21,6.21 0 0 0 0.58,1.63 1.63,1.63 0 0 0 -0.54,-0.23 c -2.07,-0.44 -4.16,-0.78 -6.27,-1.05 2.04,-0.15 4.11,-0.27 6.23,-0.35 z m -7.78,-6.94 a 2.9,2.9 0 0 0 0.55,0.61 c -1.73,-0.07 -3.48,-0.15 -5.23,-0.12 z m 10.72996,-35.08 a 0.58,0.58 0 0 0 -0.34,0.36 h -0.38 a 2.43,2.43 0 0 0 -0.15,-0.71 c 1.11,-0.04 2.07,-0.06 0.83,0.35 z m -60.62996,-34.18 a 2.28,2.28 0 0 0 -0.65,-0.14 c -2.09,-0.16 -4.2,-0.37 -6.33,-0.58 l 5.29,-0.35 a 3.1,3.1 0 0 0 2.53,0.93 l 6,-0.4 c -2.27,0.21 -4.55,0.39 -6.84,0.54 z m 40.37,-10.82 a 9.81,9.81 0 0 1 2,-0.16 c 1.66,0.1 3.07,0.33 4.52,-0.22 v 0.06 a 0.53,0.53 0 0 0 0.07,0.44 h -6.58 a 0.57,0.57 0 0 0 -0.01,-0.12 z"
     class="cls-1" />
  <path
     id="path10"
     d="M358.22,779.81c-6.62,1.54-13.46,3.18-19.64,6-.13.06,0,.38.11.34,6.6-1.66,13.18-3.88,19.64-6C358.49,780.14,358.38,779.78,358.22,779.81Z"
     class="cls-1" />
  <path
     id="path12"
     d="M299.18,728.73a8.15,8.15,0,0,0-.84-.07c-.42-.61-1.4-.8-1.42-.09,0-.35-.33-.52-.52-.38a4.43,4.43,0,0,1-.46.29.22.22,0,0,0-.23-.11,11.82,11.82,0,0,0-2,.85,25.18,25.18,0,0,0-3.92,2.2c-.2.14,0,.54.2.47a25.32,25.32,0,0,0,3.67-1.6c-.17.27.12.8.41.64a22.48,22.48,0,0,1,5.26-1.71C299.47,729.17,299.37,728.76,299.18,728.73Z"
     class="cls-1" />
  <path
     id="path14"
     d="M295.4,739.33c-.23.16,0,.75.33.61.6-.29,1.19-.63,1.79-.93.08.11.21.16.31.07a1.23,1.23,0,0,0,.37-.49c.18-.35-.19-.88-.51-.73A7.53,7.53,0,0,0,295.4,739.33Z"
     class="cls-1" />
  <path
     id="path16"
     d="M312.35,773.31c0,.14.2.07.15-.07S312.3,773.18,312.35,773.31Z"
     class="cls-1" />
  <path
     id="path18"
     d="M313.42,726.54h0c.47-.28.87-.68,1.36-.94a7.07,7.07,0,0,0,1.35-.67c.17-.16,0-.5-.18-.57-1-.34-2.42.69-2.87,1.69C313,726.3,313.22,726.64,313.42,726.54Z"
     class="cls-1" />
  <path
     id="path20"
     d="M470.34,421.86c3.79-4.33,8.67-7.82,13.14-7.82h6.61v25.64h39.3v11.54c0,6-5.19,13.5-17,13.5H490.09v44.41c0,14.68,6.51,20.39,17.72,20.39,9.18,0,16.17-1.25,20.63-4h.95v10.11c0,11.53-8.45,18.88-24.85,18.88-28.64,0-42.49-15.48-42.49-42V444.27c0-11.06,2.05-15.29,8.29-22.41"
     class="cls-2" />
  <path
     id="path22"
     d="M583.85,554.38c-22.06,0-34.07-12.46-34.07-35.33V442.26h8.16c12.46,0,20.07,6.78,20.07,21v53c0,11.38,4.9,15,17.34,15h5.2v6c0,12.18-4.85,17.07-16.7,17.07M563.65,431.7a16.48,16.48,0,1,1,16.65-16.57,16.72,16.72,0,0,1-16.65,16.57"
     class="cls-2" />
  <path
     id="path24"
     d="M727.45,498.65c0,30,19.55,57.13,53.64,57.13,36.49,0,56.19-27.14,56.19-61.07,0-30.21-19.7-57.44-53.78-57.44-36.5,0-56,27.23-56,61.38m80.51,0c0,18.56-8,32-24.46,32-18.53,0-26.88-13.42-26.88-35.92,0-18.91,8.35-32.3,24.47-32.3,18.53,0,26.87,13.39,26.87,36.24"
     class="cls-2" />
  <path
     id="path26"
     d="M732.88,412.79c0-3.23,1.64-8.29,3.82-11.83,5.93-9.65,25-22,46.2-22,20.85,0,38.58,9.72,47.4,21.23a25.7,25.7,0,0,1,4.31,13.15v11.92h-.45c-11-13.18-26.41-24-49-24-24.55,0-42.52,10.92-51.68,24h-.59Z"
     class="cls-2" />
  <path
     id="path28"
     d="M793.75,590.85c0,5.55-2.47,13.9-5.62,19.84-9,16.1-37.78,36.61-69.68,36.61-31.55,0-58.35-16.1-71.51-35.36-3.82-5.67-6.55-15.54-6.55-21.67V576h.82c16.53,21.92,39.74,40,73.85,40,37.14,0,64.11-18.39,77.91-39.87h.78Z"
     class="cls-2" />
  <path
     id="path30"
     d="M698.88,498.35h-15l.48,2.63c.18.06,1.85,7.44,1.85,15.95v9.17c0,4.53-1,8.62-12.26,8.62-16.53,0-36.23-6.61-36.23-37.75,0-19.82,15.41-34.16,36.32-34.16,13.45,0,26,3.59,33.22,9.05l.47.47h3.68v-9.77C711.4,450.65,700.69,438,677,438c-40.24,0-68.34,25.63-68.34,62.11,0,39,31.44,59.32,62.47,59.32,28.45,0,42.23-10,42.23-30.44V510.88c0-6.37-6.88-12.53-14.44-12.53"
     class="cls-2" />
  <path
     id="path32"
     d="M277.78,436.31c6.61,0,13.62,2.77,16,5.28.26,1.86-1.06,5.16-3.31,6A33.31,33.31,0,0,0,277,444c-7.15,0-14.41,3.71-14.41,12.43,0,7.8,4.36,11.5,16.25,18.78,13.23,7.8,18.91,12.95,18.91,24.45,0,15.21-12.42,23.27-26.84,23.27-8.72,0-15.33-2.77-18.24-5.15-1.32-1.06-2.25-2-2.25-3.31a12.11,12.11,0,0,1,2.12-6c4.76,3.84,12.55,6.22,18.24,6.22,10.84,0,15.87-5.56,15.87-13,0-8.2-5.29-12.16-19-20.36-14.15-8.33-15.73-16.66-15.73-22.87,0-8.2,5.42-22.21,25.78-22.21Z"
     class="cls-2" />
  <path
     id="path34"
     d="M333.7,461.56c18.77,0,27.5,13.88,27.5,29.74,0,17.72-11.24,31.21-29.09,31.21-19.17,0-27.9-14.29-27.9-29.75,0-17.58,11.9-31.2,29.35-31.2Zm-1.59,6.34c-9.12,0-16.66,8.33-16.66,23.27,0,16.66,8.2,25,18,25,7.93,0,16.53-6.61,16.53-23.8,0-13.62-5.82-24.46-17.72-24.46Z"
     class="cls-2" />
  <path
     id="path36"
     d="M367.27,545.91a169,169,0,0,0,18.11-27.11,37.82,37.82,0,0,1-3-6.47c-2-5.29-13-35-19.17-47.86,2.38-1.32,6.48-2.91,8.59-2.91,1.59,0,2.25.92,2.91,2.25,2.51,5.28,12.56,34.37,16.26,44.41,5.16-11.63,13.35-35.82,15.73-46.66a15.79,15.79,0,0,1,5.95,1.19c1.72.66,1.85,2.24,1.19,4.76a275.43,275.43,0,0,1-15.07,42.57c-10.05,21.94-22,39-24.46,39a9.86,9.86,0,0,1-7-2.91Z"
     class="cls-2" />
  <rect
     ry="0"
     y="268.43958"
     x="31.071428"
     height="528.70331"
     width="1041.4286"
     id="rect43"
     style="fill:none;fill-opacity:0.574297;fill-rule:evenodd;stroke-width:1.00557" />
  <rect
     y="280.22528"
     x="31.071428"
     height="513.70331"
     width="1020"
     id="rect868"
     style="fill:none;fill-opacity:0.574297;stroke-width:1.26889" />
</svg>
